<?xml version="1.0" encoding="utf-8"?>
<!-- Generator: Adobe Illustrator 23.0.2, SVG Export Plug-In . SVG Version: 6.00 Build 0)  -->
<svg version="1.1" id="Layer_1" xmlns="http://www.w3.org/2000/svg" xmlns:xlink="http://www.w3.org/1999/xlink" x="0px" y="0px"
	 viewBox="0 0 323 289.7" style="enable-background:new 0 0 323 289.7;" xml:space="preserve">
<style type="text/css">
	.st0{fill:#FFFFFF;}
	.st1{font-family:'MyriadPro-Regular';}
	.st2{font-size:24px;}
	.st3{font-size:12px;}
</style>
<title>washer_icon1</title>
<g>
	<path d="M237.2,236.6c-50.4,0-100.6,0-151,0c0-0.6,0-1.1,0-1.6c0-46.1,0-92.3,0-138.5c0-1.3-0.5-2.5-0.4-3.8
		c1-12.8,0.1-25.6,0.4-38.5c0-0.2,0-0.4,0.1-0.7c50.3,0,100.6,0,150.9,0C237.2,114.6,237.2,175.5,237.2,236.6z M161.6,232.5
		c23.2,0,46.5,0,69.7,0c1.7,0,1.7,0,1.7-1.7c0-44.7,0-89.4,0-134.1c0-1.8,0-1.8-1.7-1.8c-46.4,0-92.8,0-139.2,0
		c-1.7,0-1.7,0-1.7,1.7c0,44.8,0,89.6,0,134.4c0,1.6,0,1.6,1.5,1.6C115.1,232.5,138.4,232.5,161.6,232.5z M181.2,91.4
		c16.7,0,33.3,0,50,0c1.7,0,1.7,0,1.7-1.8c0-10.1,0-20.2,0-30.3c0-1.6,0-1.6-1.5-1.6c-33.5,0-67,0-100.5,0c-1.2,0-1.6,0.3-1.5,1.5
		c0.1,10.2,0,20.3,0,30.5c0,1.7,0,1.7,1.8,1.7C147.9,91.4,164.5,91.4,181.2,91.4z M108.2,57.7c-5.5,0-11,0-16.6,0
		c-1,0-1.3,0.2-1.3,1.3c0,10.4,0,20.8,0,31.2c0,1.1,0.4,1.3,1.4,1.3c10.9,0,21.9,0,32.8,0c1.2,0,1.5-0.4,1.4-1.5
		c0-10.3,0-20.5,0-30.8c0-1.1-0.3-1.5-1.4-1.4C119.1,57.7,113.7,57.7,108.2,57.7z"/>
	<path class="st0" d="M161.6,232.5c-23.2,0-46.5,0-69.7,0c-1.5,0-1.5,0-1.5-1.6c0-44.8,0-89.6,0-134.4c0-1.7,0-1.7,1.7-1.7
		c46.4,0,92.8,0,139.2,0c1.7,0,1.7,0,1.7,1.8c0,44.7,0,89.4,0,134.1c0,1.7,0,1.7-1.7,1.7C208.1,232.5,184.8,232.5,161.6,232.5z
		 M104.1,164.6c-0.2,30.5,24.4,57,56.9,57.2c31.9,0.1,57.3-25.4,57.4-56.9c0.1-32.4-26-57.1-56.4-57.4
		C129.6,107,103.8,133.4,104.1,164.6z"/>
	<path class="st0" d="M181.2,91.4c-16.7,0-33.3,0-50,0c-1.8,0-1.8,0-1.8-1.7c0-10.2,0-20.3,0-30.5c0-1.2,0.3-1.5,1.5-1.5
		c33.5,0,67,0,100.5,0c1.5,0,1.5,0,1.5,1.6c0,10.1,0,20.2,0,30.4c0,1.8,0,1.8-1.7,1.8C214.6,91.4,197.9,91.4,181.2,91.4z
		 M161.8,64.5c-5.9,0-10.5,4.6-10.7,10.4c-0.2,5.3,4.1,10.8,10.6,10.8c5.9,0.1,10.7-4.8,10.7-10.6C172.4,69.3,167.6,64.5,161.8,64.5
		z"/>
	<path class="st0" d="M108.2,57.7c5.5,0,10.9,0,16.4,0c1.2,0,1.4,0.4,1.4,1.4c0,10.3,0,20.5,0,30.8c0,1.1-0.3,1.5-1.4,1.5
		c-10.9,0-21.9,0-32.8,0c-1,0-1.4-0.2-1.4-1.3c0-10.4,0-20.8,0-31.2c0-1,0.3-1.3,1.3-1.3C97.1,57.7,102.7,57.7,108.2,57.7z"/>
	<path d="M104.1,164.6c-0.3-31.2,25.5-57.6,57.9-57.2c30.4,0.4,56.5,25,56.4,57.4c-0.1,31.5-25.5,57.1-57.4,56.9
		C128.5,221.6,103.8,195.1,104.1,164.6z M161.1,218.4c29.6,0.1,53.4-24.1,53.9-52.9c0.4-29.3-22.9-54.4-53.2-54.7
		c-30.5-0.3-54.2,24.3-54.4,53.5C107.2,194.8,132.1,218.5,161.1,218.4z"/>
	<path d="M161.8,64.5c5.9,0,10.7,4.8,10.6,10.7c0,5.8-4.9,10.7-10.7,10.6c-6.5-0.1-10.7-5.6-10.6-10.8
		C151.2,69.1,155.8,64.5,161.8,64.5z M154.4,75.1c0,4,3.3,7.4,7.3,7.4c3.9-0.1,7.3-2.8,7.4-7.4c0.1-3.9-3.4-7.3-7.4-7.3
		C157.6,67.8,154.4,71,154.4,75.1z"/>
	<path class="st0" d="M161.1,218.4c-29,0.1-53.9-23.6-53.8-54.1c0.2-29.2,23.9-53.8,54.4-53.5c30.3,0.3,53.7,25.4,53.2,54.7
		C214.6,194.3,190.8,218.5,161.1,218.4z M207,164.3c0,5.4,0,10.7,0,16.1c0,1.9,0,1.8,1.9,1.9c1.2,0.1,1.5-0.3,1.5-1.5
		c0-11-0.1-22,0-33c0-1.3-0.6-1.5-1.6-1.5c-1.7,0.1-1.7,0-1.7,1.5C207,153.4,207,158.8,207,164.3z"/>
	<path class="st0" d="M154.4,75.1c0-4.1,3.3-7.3,7.3-7.3c4,0,7.5,3.3,7.4,7.3c-0.1,4.6-3.6,7.4-7.4,7.4
		C157.7,82.5,154.4,79.1,154.4,75.1z"/>
	<path d="M207,164.3c0-5.5,0-10.9,0-16.4c0-1.5,0-1.5,1.7-1.5c1.1,0,1.6,0.1,1.6,1.5c-0.1,11-0.1,22,0,33c0,1.1-0.3,1.5-1.5,1.5
		c-1.8-0.1-1.9,0-1.9-1.9C207,175,207,169.6,207,164.3z"/>
</g>
<text transform="matrix(1 0 0 1 98.4127 259.8567)"><tspan x="0" y="0" class="st1 st2">FRONT LOAD</tspan><tspan x="132.5" y="0" class="st1 st3"> </tspan></text>
</svg>
